<svg xmlns="http://www.w3.org/2000/svg" version="1.1" xmlns:xlink="http://www.w3.org/1999/xlink" xmlns:svgjs="http://svgjs.dev/svgjs" width="2000" height="792" viewBox="0 0 2000 792"><g transform="matrix(1,0,0,1,-1.2121212121212466,-0.6461438042960594)"><svg viewBox="0 0 396 157" data-background-color="#ffffff" preserveAspectRatio="xMidYMid meet" height="792" width="2000" xmlns="http://www.w3.org/2000/svg" xmlns:xlink="http://www.w3.org/1999/xlink"><g id="tight-bounds" transform="matrix(1,0,0,1,0.2400000000000091,0.12808658746777724)"><svg viewBox="0 0 395.52 156.74382682506445" height="156.74382682506445" width="395.52"><g><svg viewBox="0 0 395.52 156.74382682506445" height="156.74382682506445" width="395.52"><g><svg viewBox="0 0 395.52 156.74382682506445" height="156.74382682506445" width="395.52"><g id="textblocktransform"><svg viewBox="0 0 395.52 156.74382682506445" height="156.74382682506445" width="395.52" id="textblock"><g><svg viewBox="0 0 395.52 114.14295399515737" height="114.14295399515737" width="395.52"><g transform="matrix(1,0,0,1,0,0)"><svg width="395.52" viewBox="2.54 -36.55 161.31 46.559999999999995" height="114.14295399515737" data-palette-color="#000000"><path d="M9.25-1.76L9.25 9.96 2.54 9.96 2.54-26.15 4.15-26.15 6.81-23Q7.71-23.85 8.79-24.61 9.86-25.37 11.02-25.92 12.18-26.46 13.43-26.78 14.67-27.1 15.94-27.1L15.94-27.1Q18.7-27.1 21.13-26.11 23.56-25.12 25.38-23.32 27.2-21.51 28.25-18.96 29.3-16.41 29.3-13.31L29.3-13.31Q29.3-10.08 28.25-7.51 27.2-4.93 25.38-3.14 23.56-1.34 21.13-0.39 18.7 0.56 15.94 0.56L15.94 0.56Q15.06 0.56 14.2 0.37 13.33 0.17 12.49-0.16 11.65-0.49 10.83-0.9 10.01-1.32 9.25-1.76L9.25-1.76ZM22.61-13.31L22.61-13.31Q22.61-14.97 22.08-16.28 21.56-17.6 20.65-18.52 19.75-19.43 18.53-19.92 17.31-20.41 15.94-20.41L15.94-20.41Q14.58-20.41 13.37-19.92 12.16-19.43 11.25-18.52 10.35-17.6 9.83-16.28 9.3-14.97 9.3-13.31L9.3-13.31Q9.3-11.72 9.83-10.4 10.35-9.08 11.25-8.15 12.16-7.23 13.37-6.71 14.58-6.2 15.94-6.2L15.94-6.2Q17.31-6.2 18.53-6.71 19.75-7.23 20.65-8.15 21.56-9.08 22.08-10.4 22.61-11.72 22.61-13.31ZM58.25-13.31L58.25-13.31Q58.25-10.38 57.2-7.85 56.15-5.32 54.34-3.48 52.54-1.64 50.11-0.57 47.68 0.49 44.89 0.49L44.89 0.49Q42.14 0.49 39.71-0.57 37.28-1.64 35.46-3.48 33.64-5.32 32.59-7.85 31.54-10.38 31.54-13.31L31.54-13.31Q31.54-16.28 32.59-18.82 33.64-21.36 35.46-23.21 37.28-25.05 39.71-26.1 42.14-27.15 44.89-27.15L44.89-27.15Q47.68-27.15 50.11-26.16 52.54-25.17 54.34-23.35 56.15-21.53 57.2-18.98 58.25-16.43 58.25-13.31ZM51.54-13.31L51.54-13.31Q51.54-14.92 51.01-16.22 50.49-17.53 49.58-18.47 48.68-19.41 47.47-19.91 46.26-20.41 44.89-20.41L44.89-20.41Q43.53-20.41 42.32-19.91 41.11-19.41 40.22-18.47 39.33-17.53 38.82-16.22 38.3-14.92 38.3-13.31L38.3-13.31Q38.3-11.79 38.82-10.5 39.33-9.2 40.22-8.25 41.11-7.3 42.32-6.75 43.53-6.2 44.89-6.2L44.89-6.2Q46.26-6.2 47.47-6.71 48.68-7.23 49.58-8.15 50.49-9.08 51.01-10.4 51.54-11.72 51.54-13.31ZM95.19-16.6L95.19 0 88.54 0 88.54-16.6Q88.54-17.29 88.29-17.9 88.03-18.51 87.57-18.97 87.1-19.43 86.49-19.69 85.88-19.95 85.2-19.95L85.2-19.95Q84.52-19.95 83.92-19.69 83.32-19.43 82.87-18.97 82.42-18.51 82.16-17.9 81.9-17.29 81.9-16.6L81.9-16.6 81.9 0 75.24 0 75.24-16.6Q75.24-17.29 74.98-17.9 74.73-18.51 74.26-18.97 73.8-19.43 73.19-19.69 72.58-19.95 71.89-19.95L71.89-19.95Q71.21-19.95 70.61-19.69 70.01-19.43 69.56-18.97 69.11-18.51 68.85-17.9 68.6-17.29 68.6-16.6L68.6-16.6 68.6 0 61.93 0 61.93-26.15 63.54-26.15 65.35-24.15Q66.74-25.32 68.42-25.96 70.09-26.61 71.89-26.61L71.89-26.61Q73.73-26.61 75.47-25.93 77.22-25.24 78.54-23.56L78.54-23.56Q79.15-24.39 79.93-24.98 80.71-25.56 81.57-25.93 82.44-26.29 83.37-26.45 84.3-26.61 85.2-26.61L85.2-26.61Q87.28-26.61 89.09-25.83 90.91-25.05 92.27-23.69 93.62-22.34 94.4-20.51 95.19-18.68 95.19-16.6L95.19-16.6ZM125.31-13.31L125.31-13.31Q125.31-10.38 124.26-7.85 123.21-5.32 121.4-3.48 119.6-1.64 117.17-0.57 114.74 0.49 111.96 0.49L111.96 0.49Q109.2 0.49 106.77-0.57 104.34-1.64 102.52-3.48 100.7-5.32 99.65-7.85 98.6-10.38 98.6-13.31L98.6-13.31Q98.6-16.28 99.65-18.82 100.7-21.36 102.52-23.21 104.34-25.05 106.77-26.1 109.2-27.15 111.96-27.15L111.96-27.15Q114.74-27.15 117.17-26.16 119.6-25.17 121.4-23.35 123.21-21.53 124.26-18.98 125.31-16.43 125.31-13.31ZM118.6-13.31L118.6-13.31Q118.6-14.92 118.07-16.22 117.55-17.53 116.64-18.47 115.74-19.41 114.53-19.91 113.32-20.41 111.96-20.41L111.96-20.41Q110.59-20.41 109.38-19.91 108.17-19.41 107.28-18.47 106.39-17.53 105.88-16.22 105.36-14.92 105.36-13.31L105.36-13.31Q105.36-11.79 105.88-10.5 106.39-9.2 107.28-8.25 108.17-7.3 109.38-6.75 110.59-6.2 111.96-6.2L111.96-6.2Q113.32-6.2 114.53-6.71 115.74-7.23 116.64-8.15 117.55-9.08 118.07-10.4 118.6-11.72 118.6-13.31ZM135.71-36.55L135.71 0 128.99 0 128.99-36.55 135.71-36.55ZM150.5 10.01L147.08 9.96 147.08 3.25 150.79 3.3Q151.77 3.3 152.67 2.98 153.58 2.66 154.35 2.1 155.11 1.54 155.7 0.77 156.29 0 156.65-0.9L156.65-0.9Q155.55-0.44 154.42 0.02 153.28 0.49 152.14 0.49L152.14 0.49Q149.72 0.49 147.59-0.37 145.47-1.22 143.87-2.8 142.27-4.37 141.36-6.63 140.44-8.89 140.44-11.69L140.44-11.69 140.44-26.15 147.08-26.15 147.08-11.69Q147.08-10.3 147.49-9.27 147.89-8.23 148.57-7.53 149.26-6.84 150.17-6.49 151.09-6.15 152.14-6.15L152.14-6.15Q153.16-6.15 154.08-6.63 154.99-7.1 155.68-7.89 156.36-8.67 156.75-9.66 157.14-10.64 157.14-11.69L157.14-11.69 157.14-26.15 163.85-26.15 163.85-3.3Q163.83-0.54 162.78 1.88 161.73 4.3 159.91 6.1 158.09 7.91 155.68 8.96 153.26 10.01 150.5 10.01L150.5 10.01Z" opacity="1" transform="matrix(1,0,0,1,0,0)" fill="#ffffff" class="wordmark-text-0" data-fill-palette-color="primary" id="text-0"></path></svg></g></svg></g><g transform="matrix(1,0,0,1,245.2224,141.08936600251815)"><svg viewBox="0 0 150.2976 15.65446082254629" height="15.65446082254629" width="150.2976"><g transform="matrix(1,0,0,1,0,0)"><svg width="150.2976" viewBox="2 -36.55 446.97 46.559999999999995" height="15.65446082254629" data-palette-color="#000000"><path d="M28.71-13.31L28.71-13.31Q28.71-10.23 27.66-7.69 26.61-5.15 24.8-3.33 23-1.51 20.57-0.51 18.14 0.49 15.36 0.49L15.36 0.49Q12.6 0.49 10.17-0.54 7.74-1.56 5.92-3.39 4.1-5.22 3.05-7.75 2-10.28 2-13.31L2-13.31 2-36.55 8.69-36.55 8.69-24.34Q9.23-25.02 10-25.56 10.77-26.1 11.66-26.44 12.55-26.78 13.5-26.97 14.45-27.15 15.36-27.15L15.36-27.15Q18.14-27.15 20.57-26.11 23-25.07 24.8-23.22 26.61-21.36 27.66-18.84 28.71-16.31 28.71-13.31ZM22-13.31L22-13.31Q22-14.82 21.47-16.13 20.95-17.43 20.04-18.38 19.14-19.34 17.93-19.87 16.72-20.41 15.36-20.41L15.36-20.41Q13.99-20.41 12.78-19.81 11.57-19.21 10.67-18.23 9.77-17.24 9.25-15.95 8.74-14.67 8.74-13.31L8.74-13.31Q8.74-11.79 9.25-10.5 9.77-9.2 10.67-8.25 11.57-7.3 12.78-6.75 13.99-6.2 15.36-6.2L15.36-6.2Q16.72-6.2 17.93-6.75 19.14-7.3 20.04-8.25 20.95-9.2 21.47-10.5 22-11.79 22-13.31ZM42.11 10.01L38.69 9.96 38.69 3.25 42.4 3.3Q43.38 3.3 44.28 2.98 45.19 2.66 45.96 2.1 46.73 1.54 47.31 0.77 47.9 0 48.26-0.9L48.26-0.9Q47.17-0.44 46.03 0.02 44.89 0.49 43.75 0.49L43.75 0.49Q41.33 0.49 39.21-0.37 37.08-1.22 35.48-2.8 33.88-4.37 32.97-6.63 32.05-8.89 32.05-11.69L32.05-11.69 32.05-26.15 38.69-26.15 38.69-11.69Q38.69-10.3 39.1-9.27 39.5-8.23 40.18-7.53 40.87-6.84 41.78-6.49 42.7-6.15 43.75-6.15L43.75-6.15Q44.77-6.15 45.69-6.63 46.6-7.1 47.29-7.89 47.97-8.67 48.36-9.66 48.75-10.64 48.75-11.69L48.75-11.69 48.75-26.15 55.47-26.15 55.47-3.3Q55.44-0.54 54.39 1.88 53.34 4.3 51.52 6.1 49.7 7.91 47.29 8.96 44.87 10.01 42.11 10.01L42.11 10.01ZM103.24-10.5L103.24-10.5Q103.24-8.33 102.41-6.42 101.58-4.52 100.15-3.09 98.72-1.66 96.82-0.83 94.91 0 92.74 0L92.74 0 75.24 0 75.24-35.01 92.74-35.01Q94.91-35.01 96.82-34.18 98.72-33.35 100.15-31.92 101.58-30.49 102.41-28.59 103.24-26.68 103.24-24.51L103.24-24.51Q103.24-23.54 102.97-22.51 102.7-21.48 102.21-20.53 101.73-19.58 101.04-18.8 100.36-18.02 99.53-17.5L99.53-17.5Q100.38-17.04 101.07-16.25 101.75-15.45 102.24-14.5 102.73-13.55 102.98-12.51 103.24-11.47 103.24-10.5ZM82.24-13.99L82.24-7.01 92.74-7.01Q93.47-7.01 94.11-7.28 94.74-7.54 95.22-8.02 95.7-8.5 95.96-9.13 96.23-9.77 96.23-10.5L96.23-10.5Q96.23-11.23 95.96-11.87 95.7-12.5 95.22-12.98 94.74-13.45 94.11-13.72 93.47-13.99 92.74-13.99L92.74-13.99 82.24-13.99ZM82.24-28L82.24-21 92.74-21Q93.47-21 94.11-21.26 94.74-21.53 95.22-22.01 95.7-22.49 95.96-23.13 96.23-23.78 96.23-24.51L96.23-24.51Q96.23-25.24 95.96-25.88 95.7-26.51 95.22-26.99 94.74-27.47 94.11-27.73 93.47-28 92.74-28L92.74-28 82.24-28ZM122.55-28L115.54-28 115.54-13.99 122.55-13.99Q123.99-13.99 125.26-14.54 126.53-15.09 127.48-16.04 128.43-16.99 128.98-18.27 129.53-19.56 129.53-21L129.53-21Q129.53-22.44 128.98-23.72 128.43-25 127.48-25.95 126.53-26.9 125.26-27.45 123.99-28 122.55-28L122.55-28ZM115.54-7.01L115.54 0 108.53 0 108.53-35.01 122.55-35.01Q124.48-35.01 126.26-34.51 128.04-34.01 129.59-33.09 131.14-32.18 132.42-30.9 133.71-29.61 134.62-28.05 135.54-26.49 136.04-24.71 136.54-22.92 136.54-21L136.54-21Q136.54-19.19 136.09-17.48 135.63-15.77 134.79-14.23 133.95-12.7 132.73-11.4 131.51-10.11 129.99-9.16L129.99-9.16 133.88 0 126.43 0 123.38-7.06 115.54-7.01ZM175.43-17.36L175.43-17.36Q175.43-14.87 174.78-12.56 174.13-10.25 172.96-8.24 171.79-6.23 170.13-4.57 168.47-2.91 166.47-1.72 164.47-0.54 162.15 0.11 159.83 0.76 157.34 0.76L157.34 0.76Q154.85 0.76 152.54 0.11 150.23-0.54 148.22-1.72 146.2-2.91 144.54-4.57 142.88-6.23 141.7-8.24 140.51-10.25 139.87-12.56 139.22-14.87 139.22-17.36L139.22-17.36Q139.22-19.85 139.87-22.17 140.51-24.49 141.7-26.49 142.88-28.49 144.54-30.15 146.2-31.81 148.22-32.98 150.23-34.16 152.54-34.8 154.85-35.45 157.34-35.45L157.34-35.45Q159.83-35.45 162.15-34.8 164.47-34.16 166.47-32.98 168.47-31.81 170.13-30.15 171.79-28.49 172.96-26.49 174.13-24.49 174.78-22.17 175.43-19.85 175.43-17.36ZM168.47-17.36L168.47-17.36Q168.47-19.65 167.59-21.69 166.71-23.73 165.21-25.23 163.71-26.73 161.67-27.61 159.63-28.49 157.34-28.49L157.34-28.49Q155.02-28.49 152.99-27.61 150.96-26.73 149.45-25.23 147.94-23.73 147.06-21.69 146.18-19.65 146.18-17.36L146.18-17.36Q146.18-15.06 147.06-13.05 147.94-11.04 149.45-9.52 150.96-8.01 152.99-7.13 155.02-6.25 157.34-6.25L157.34-6.25Q159.63-6.25 161.67-7.13 163.71-8.01 165.21-9.52 166.71-11.04 167.59-13.05 168.47-15.06 168.47-17.36ZM207.87-17.36L207.87-3.54Q205.43-1.46 202.43-0.35 199.42 0.76 196.18 0.76L196.18 0.76Q193.69 0.76 191.38 0.11 189.07-0.54 187.07-1.72 185.07-2.91 183.41-4.55 181.75-6.2 180.58-8.22 179.4-10.23 178.76-12.55 178.11-14.87 178.11-17.36L178.11-17.36Q178.11-19.85 178.76-22.14 179.4-24.44 180.58-26.45 181.75-28.47 183.41-30.11 185.07-31.76 187.07-32.93 189.07-34.11 191.38-34.75 193.69-35.4 196.18-35.4L196.18-35.4Q199.42-35.4 202.43-34.29 205.43-33.18 207.87-31.1L207.87-31.1 204.21-25Q202.62-26.61 200.55-27.53 198.47-28.44 196.18-28.44L196.18-28.44Q193.88-28.44 191.87-27.56 189.85-26.68 188.34-25.18 186.83-23.68 185.95-21.67 185.07-19.65 185.07-17.36L185.07-17.36Q185.07-15.04 185.95-13.01 186.83-10.99 188.34-9.47 189.85-7.96 191.87-7.08 193.88-6.2 196.18-6.2L196.18-6.2Q197.49-6.2 198.74-6.52 199.99-6.84 201.11-7.4L201.11-7.4 201.11-17.36 207.87-17.36ZM227.28-28L220.27-28 220.27-13.99 227.28-13.99Q228.72-13.99 229.99-14.54 231.26-15.09 232.21-16.04 233.16-16.99 233.71-18.27 234.26-19.56 234.26-21L234.26-21Q234.26-22.44 233.71-23.72 233.16-25 232.21-25.95 231.26-26.9 229.99-27.45 228.72-28 227.28-28L227.28-28ZM220.27-7.01L220.27 0 213.26 0 213.26-35.01 227.28-35.01Q229.21-35.01 230.99-34.51 232.77-34.01 234.32-33.09 235.87-32.18 237.15-30.9 238.43-29.61 239.35-28.05 240.27-26.49 240.77-24.71 241.27-22.92 241.27-21L241.27-21Q241.27-19.19 240.82-17.48 240.36-15.77 239.52-14.23 238.68-12.7 237.46-11.4 236.24-10.11 234.72-9.16L234.72-9.16 238.61 0 231.16 0 228.11-7.06 220.27-7.01ZM252.45-13.99L266.46-13.99 266.46-21Q266.46-22.44 265.91-23.72 265.36-25 264.41-25.95 263.46-26.9 262.17-27.45 260.89-28 259.45-28L259.45-28Q258.01-28 256.73-27.45 255.45-26.9 254.5-25.95 253.54-25 253-23.72 252.45-22.44 252.45-21L252.45-21 252.45-13.99ZM273.47-21L273.47 0 266.46 0 266.46-7.01 252.45-7.01 252.45 0 245.46 0 245.46-21Q245.46-23.9 246.56-26.45 247.66-29 249.55-30.91 251.44-32.81 254-33.91 256.55-35.01 259.45-35.01L259.45-35.01Q262.36-35.01 264.91-33.91 267.46-32.81 269.36-30.91 271.27-29 272.37-26.45 273.47-23.9 273.47-21L273.47-21ZM314.28-25L314.28 0 307.3 0 307.3-25Q307.3-25.73 307.02-26.37 306.74-27 306.26-27.48 305.79-27.95 305.15-28.22 304.52-28.49 303.79-28.49L303.79-28.49Q303.05-28.49 302.42-28.22 301.78-27.95 301.31-27.48 300.83-27 300.56-26.37 300.29-25.73 300.29-25L300.29-25 300.29 0 293.29 0 293.29-25Q293.29-25.73 293.02-26.37 292.75-27 292.27-27.48 291.8-27.95 291.16-28.22 290.53-28.49 289.8-28.49L289.8-28.49Q289.06-28.49 288.43-28.22 287.79-27.95 287.32-27.48 286.84-27 286.57-26.37 286.31-25.73 286.31-25L286.31-25 286.31 0 279.3 0 279.3-25Q279.3-27.17 280.12-29.09 280.93-31.01 282.36-32.43 283.79-33.86 285.71-34.68 287.62-35.5 289.8-35.5L289.8-35.5Q291.75-35.5 293.56-34.8 295.36-34.11 296.8-32.79L296.8-32.79Q298.24-34.11 300.04-34.8 301.83-35.5 303.79-35.5L303.79-35.5Q305.96-35.5 307.88-34.68 309.79-33.86 311.22-32.43 312.65-31.01 313.47-29.09 314.28-27.17 314.28-25L314.28-25ZM355.27-25L355.27 0 348.29 0 348.29-25Q348.29-25.73 348.01-26.37 347.73-27 347.25-27.48 346.78-27.95 346.14-28.22 345.51-28.49 344.77-28.49L344.77-28.49Q344.04-28.49 343.41-28.22 342.77-27.95 342.3-27.48 341.82-27 341.55-26.37 341.28-25.73 341.28-25L341.28-25 341.28 0 334.28 0 334.28-25Q334.28-25.73 334.01-26.37 333.74-27 333.26-27.48 332.79-27.95 332.15-28.22 331.52-28.49 330.79-28.49L330.79-28.49Q330.05-28.49 329.42-28.22 328.78-27.95 328.31-27.48 327.83-27 327.56-26.37 327.29-25.73 327.29-25L327.29-25 327.29 0 320.29 0 320.29-25Q320.29-27.17 321.11-29.09 321.92-31.01 323.35-32.43 324.78-33.86 326.7-34.68 328.61-35.5 330.79-35.5L330.79-35.5Q332.74-35.5 334.55-34.8 336.35-34.11 337.79-32.79L337.79-32.79Q339.23-34.11 341.03-34.8 342.82-35.5 344.77-35.5L344.77-35.5Q346.95-35.5 348.86-34.68 350.78-33.86 352.21-32.43 353.64-31.01 354.45-29.09 355.27-27.17 355.27-25L355.27-25ZM385.52-7.01L385.52 0 361.52 0 361.52-35.01 385.52-35.01 385.52-28 368.53-28 368.53-21 380.03-21 380.03-13.99 368.53-13.99 368.53-7.01 385.52-7.01ZM404.44-28L397.43-28 397.43-13.99 404.44-13.99Q405.88-13.99 407.15-14.54 408.42-15.09 409.37-16.04 410.32-16.99 410.87-18.27 411.42-19.56 411.42-21L411.42-21Q411.42-22.44 410.87-23.72 410.32-25 409.37-25.95 408.42-26.9 407.15-27.45 405.88-28 404.44-28L404.44-28ZM397.43-7.01L397.43 0 390.42 0 390.42-35.01 404.44-35.01Q406.37-35.01 408.15-34.51 409.93-34.01 411.48-33.09 413.03-32.18 414.31-30.9 415.6-29.61 416.51-28.05 417.43-26.49 417.93-24.71 418.43-22.92 418.43-21L418.43-21Q418.43-19.19 417.98-17.48 417.52-15.77 416.68-14.23 415.84-12.7 414.62-11.4 413.4-10.11 411.88-9.16L411.88-9.16 415.77 0 408.32 0 405.27-7.06 397.43-7.01ZM420.96-24.51L420.96-24.51Q420.96-26.68 421.79-28.59 422.62-30.49 424.05-31.92 425.48-33.35 427.38-34.18 429.29-35.01 431.46-35.01L431.46-35.01 447.53-35.01 447.53-28 431.46-28Q430.73-28 430.09-27.73 429.46-27.47 428.98-26.99 428.51-26.51 428.24-25.88 427.97-25.24 427.97-24.51L427.97-24.51Q427.97-23.78 428.24-23.13 428.51-22.49 428.98-22.01 429.46-21.53 430.09-21.26 430.73-21 431.46-21L431.46-21 438.47-21Q440.64-21 442.56-20.18 444.47-19.36 445.9-17.93 447.33-16.5 448.15-14.59 448.97-12.67 448.97-10.5L448.97-10.5Q448.97-8.33 448.15-6.42 447.33-4.52 445.9-3.09 444.47-1.66 442.56-0.83 440.64 0 438.47 0L438.47 0 422.92 0 422.92-7.01 438.47-7.01Q439.2-7.01 439.84-7.28 440.47-7.54 440.95-8.02 441.42-8.5 441.69-9.13 441.96-9.77 441.96-10.5L441.96-10.5Q441.96-11.23 441.69-11.87 441.42-12.5 440.95-12.98 440.47-13.45 439.84-13.72 439.2-13.99 438.47-13.99L438.47-13.99 431.46-13.99Q429.29-13.99 427.38-14.82 425.48-15.65 424.05-17.08 422.62-18.51 421.79-20.42 420.96-22.34 420.96-24.51Z" opacity="1" transform="matrix(1,0,0,1,0,0)" fill="#ffffff" class="slogan-text-1" data-fill-palette-color="secondary" id="text-1"></path></svg></g></svg></g></svg></g></svg></g></svg></g><defs></defs></svg><rect width="395.52" height="156.74382682506445" fill="none" stroke="none" visibility="hidden"></rect></g></svg></g></svg>